<mxfile host="app.diagrams.net" agent="Mozilla/5.0 (Windows NT 10.0; Win64; x64) AppleWebKit/537.36 (KHTML, like Gecko) Chrome/131.0.0.0 Safari/537.36" version="25.0.3">
  <diagram name="Page-1" id="ZjMi84XzI17HJ8hspS95">
    <mxGraphModel dx="2899" dy="1066" grid="1" gridSize="10" guides="1" tooltips="1" connect="1" arrows="1" fold="1" page="1" pageScale="1" pageWidth="850" pageHeight="1100" math="0" shadow="0">
      <root>
        <mxCell id="0" />
        <mxCell id="1" parent="0" />
        <mxCell id="M_LMbejLbgr9d5xOoAI8-4" style="edgeStyle=orthogonalEdgeStyle;rounded=0;orthogonalLoop=1;jettySize=auto;html=1;entryX=0.5;entryY=0;entryDx=0;entryDy=0;" edge="1" parent="1" source="M_LMbejLbgr9d5xOoAI8-1" target="M_LMbejLbgr9d5xOoAI8-3">
          <mxGeometry relative="1" as="geometry" />
        </mxCell>
        <mxCell id="M_LMbejLbgr9d5xOoAI8-1" value="&lt;font style=&quot;font-size: 24px;&quot;&gt;start&lt;/font&gt;" style="strokeWidth=2;html=1;shape=mxgraph.flowchart.start_1;whiteSpace=wrap;" vertex="1" parent="1">
          <mxGeometry x="375" y="40" width="100" height="60" as="geometry" />
        </mxCell>
        <mxCell id="M_LMbejLbgr9d5xOoAI8-2" value="&lt;font style=&quot;font-size: 24px;&quot;&gt;end&lt;/font&gt;" style="strokeWidth=2;html=1;shape=mxgraph.flowchart.start_1;whiteSpace=wrap;" vertex="1" parent="1">
          <mxGeometry x="375.5" y="590" width="100" height="60" as="geometry" />
        </mxCell>
        <mxCell id="M_LMbejLbgr9d5xOoAI8-6" style="edgeStyle=orthogonalEdgeStyle;rounded=0;orthogonalLoop=1;jettySize=auto;html=1;entryX=0.5;entryY=0;entryDx=0;entryDy=0;" edge="1" parent="1" source="M_LMbejLbgr9d5xOoAI8-3" target="M_LMbejLbgr9d5xOoAI8-5">
          <mxGeometry relative="1" as="geometry" />
        </mxCell>
        <mxCell id="M_LMbejLbgr9d5xOoAI8-3" value="input year" style="shape=parallelogram;perimeter=parallelogramPerimeter;whiteSpace=wrap;html=1;fixedSize=1;" vertex="1" parent="1">
          <mxGeometry x="288" y="160" width="275" height="50" as="geometry" />
        </mxCell>
        <mxCell id="M_LMbejLbgr9d5xOoAI8-9" style="edgeStyle=orthogonalEdgeStyle;rounded=0;orthogonalLoop=1;jettySize=auto;html=1;entryX=0.5;entryY=0;entryDx=0;entryDy=0;" edge="1" parent="1" source="M_LMbejLbgr9d5xOoAI8-5" target="M_LMbejLbgr9d5xOoAI8-8">
          <mxGeometry relative="1" as="geometry" />
        </mxCell>
        <mxCell id="M_LMbejLbgr9d5xOoAI8-10" style="edgeStyle=orthogonalEdgeStyle;rounded=0;orthogonalLoop=1;jettySize=auto;html=1;entryX=0.5;entryY=0;entryDx=0;entryDy=0;" edge="1" parent="1" source="M_LMbejLbgr9d5xOoAI8-5" target="M_LMbejLbgr9d5xOoAI8-7">
          <mxGeometry relative="1" as="geometry" />
        </mxCell>
        <mxCell id="M_LMbejLbgr9d5xOoAI8-5" value="if ((year % 4 == 0 &amp;amp;&amp;amp; year % 100 != 0) || (year % 400 == 0))" style="rhombus;whiteSpace=wrap;html=1;" vertex="1" parent="1">
          <mxGeometry x="242" y="260" width="366" height="230" as="geometry" />
        </mxCell>
        <mxCell id="M_LMbejLbgr9d5xOoAI8-7" value="output&lt;br&gt;&quot;February has 29 days&quot;" style="shape=parallelogram;perimeter=parallelogramPerimeter;whiteSpace=wrap;html=1;fixedSize=1;" vertex="1" parent="1">
          <mxGeometry x="-40" y="510" width="275" height="50" as="geometry" />
        </mxCell>
        <mxCell id="M_LMbejLbgr9d5xOoAI8-12" style="edgeStyle=orthogonalEdgeStyle;rounded=0;orthogonalLoop=1;jettySize=auto;html=1;entryX=0.5;entryY=0;entryDx=0;entryDy=0;entryPerimeter=0;" edge="1" parent="1" source="M_LMbejLbgr9d5xOoAI8-8" target="M_LMbejLbgr9d5xOoAI8-2">
          <mxGeometry relative="1" as="geometry">
            <mxPoint x="430" y="600" as="targetPoint" />
          </mxGeometry>
        </mxCell>
        <mxCell id="M_LMbejLbgr9d5xOoAI8-8" value="output&lt;br&gt;&quot;February has 28 days&quot;" style="shape=parallelogram;perimeter=parallelogramPerimeter;whiteSpace=wrap;html=1;fixedSize=1;" vertex="1" parent="1">
          <mxGeometry x="620" y="510" width="275" height="50" as="geometry" />
        </mxCell>
        <mxCell id="M_LMbejLbgr9d5xOoAI8-11" style="edgeStyle=orthogonalEdgeStyle;rounded=0;orthogonalLoop=1;jettySize=auto;html=1;entryX=0.5;entryY=0;entryDx=0;entryDy=0;entryPerimeter=0;" edge="1" parent="1" source="M_LMbejLbgr9d5xOoAI8-7" target="M_LMbejLbgr9d5xOoAI8-2">
          <mxGeometry relative="1" as="geometry" />
        </mxCell>
      </root>
    </mxGraphModel>
  </diagram>
</mxfile>
